<svg width="24" height="24" xmlns="http://www.w3.org/2000/svg">

 <g>
  <title>background</title>
  <rect fill="none" id="canvas_background" height="402" width="582" y="-1" x="-1"/>
 </g>
 <g>
  <title>Layer 1</title>
  <path fill="#f19f4d" id="svg_2" d="m21,19.9939l-7.52295,0c0.34485,-1.45697 0.52295,-2.96436 0.52295,-4.5c0,-5.00782 -1.92822,-9.82032 -5.29053,-13.20508c-0.37597,-0.37695 -1.04297,-0.37695 -1.41894,0c-3.36231,3.38476 -5.29053,8.19726 -5.29053,13.20508c0,1.99707 0.29492,3.94824 0.87598,5.7998c0.00561,0.01788 0.018,0.03156 0.02453,0.04895c0.0149,0.03955 0.03577,0.07355 0.0553,0.11054c0.03723,0.0708 0.07922,0.13562 0.13117,0.19452c0.02783,0.03167 0.05566,0.06011 0.08728,0.08801c0.06097,0.05383 0.1275,0.09692 0.1997,0.13452c0.03394,0.01776 0.06427,0.03809 0.10034,0.05188c0.11219,0.04303 0.23047,0.07178 0.35578,0.07178l8.33984,0l8.83008,0c0.55225,0 1,-0.44727 1,-1s-22,-20.9939 -1,-1zm-16.41895,0c-0.38574,-1.44629 -0.58105,-2.95703 -0.58105,-4.5c0,-4.11621 1.44678,-8.07715 4,-11.0293c2.55322,2.95215 4,6.91309 4,11.0293c0,1.54297 -0.19531,3.05371 -0.58105,4.5l-6.8379,0z"/>
  <path fill="#f19f4d" id="svg_3" d="m8,8.9939c-0.55225,0 -1,0.44726 -1,1l0,3c0,0.55273 0.44775,1 1,1s1,-0.44727 1,-1l0,-3c0,-0.55274 -0.44775,-1 -1,-1z"/>
  <path fill="#f19f4d" id="svg_4" d="m21,16.9939c-0.89941,0 -1.2876,-0.31055 -1.87549,-0.78125c-0.67871,-0.54297 -1.52392,-1.21875 -3.12451,-1.21875c-0.55225,0 -1,0.44726 -1,1s0.44775,1 1,1c0.89941,0 1.2876,0.31054 1.87549,0.78125c0.67871,0.54297 1.52392,1.21875 3.12451,1.21875c0.55225,0 1,-0.44727 1,-1s-0.44775,-1 -1,-1z"/>
  <path fill="#f19f4d" id="svg_5" d="m21,12.9939c-0.89941,0 -1.2876,-0.31055 -1.87549,-0.78125c-0.67871,-0.54297 -1.52392,-1.21875 -3.12451,-1.21875c-0.55225,0 -1,0.44726 -1,1s0.44775,1 1,1c0.89941,0 1.2876,0.31054 1.87549,0.78125c0.67871,0.54297 1.52392,1.21875 3.12451,1.21875c0.55225,0 1,-0.44727 1,-1s-0.44775,-1 -1,-1z"/>
  <path fill="#f19f4d" id="svg_6" d="m16,8.9939c0.89941,0 1.2876,0.31054 1.87549,0.78125c0.67871,0.54297 1.52392,1.21875 3.12451,1.21875c0.55225,0 1,-0.44727 1,-1s-0.44775,-1 -1,-1c-0.89941,0 -1.2876,-0.31055 -1.87549,-0.78125c-0.67871,-0.54297 -1.52392,-1.21875 -3.12451,-1.21875c-0.55225,0 -1,0.44726 -1,1s0.44775,1 1,1z"/>
 </g>
</svg>